<?xml version="1.0" encoding="UTF-8"?>
<svg width="175px" height="274px" viewBox="0 0 175 274" version="1.1" xmlns="http://www.w3.org/2000/svg">
    <!-- Generator: Sketch 43.2 (39069) - http://www.bohemiancoding.com/sketch -->
    <title>Group</title>
    <desc>Created with Sketch.</desc>
    <defs></defs>
    <g id="Page-1" stroke="none" stroke-width="1" fill="none" fill-rule="evenodd">
        <g id="Group">
            <path d="M138.375,79.875 C138.907,80.131 139.299,80.573 139.55,81.2 C139.783,81.9 139.85,82.617 139.75,83.35 C139.75,83.45 139.583,85.65 139.25,89.95 C138.917,94.25 138.75,97.433 138.75,99.5 C138.75,103 138.583,105.6 138.25,107.3 L138.25,110.4 C138.184,110.505 138.15,110.572 138.15,110.6 C138.15,111.008 138.183,111.283 138.25,111.425 L138.25,111.5 C133.575,112.355 129.392,112.889 125.7,113.1 C125.4,107.573 125.25,103.89 125.25,102.05 C125.45,100.183 125.55,98.334 125.55,96.5 C125.57,94.395 125.436,92.895 125.151,92 L125.501,92 C129.901,92 133.401,89.767 136.001,85.3 C137.148,83.337 137.94,81.529 138.375,79.875 Z M10.475,273.15 C10.759,272.866 10.934,272.016 11,270.599 C10.998,270.534 10.998,270.467 11,270.4 L11,266.9 C11,265.893 10.967,264.685 10.9,263.275 C11.06,261.368 11.177,259.026 11.25,256.25 L11.25,242.1 C11.25,234.833 11.183,230.217 11.05,228.25 C11.034,227.994 11.018,227.744 11,227.5 L11,224.55 C11,222.663 10.9,221.238 10.7,220.276 C10.954,220.313 11.204,220.354 11.45,220.401 C13.617,220.8 18.383,221.001 25.75,221.001 C30.373,221.001 34.723,220.676 38.8,220.026 C38.767,220.193 38.75,220.384 38.75,220.6 C38.75,227.434 38.667,234.151 38.5,240.75 C38.333,247.316 38.25,253.4 38.25,259 L38.25,266 C38.313,267.766 38.421,269.199 38.575,270.3 C38.84,272.1 39.232,273 39.75,273 C40.283,273 40.667,272.833 40.9,272.5 C41.067,272.1 41.183,271.85 41.25,271.75 L41.25,270.3 L136.525,270.45 C136.754,271.15 136.996,271.5 137.25,271.5 C137.728,271.5 138.094,271.15 138.35,270.45 C138.546,269.929 138.679,269.212 138.75,268.3 L138.75,264.6 C138.75,260.767 138.5,254.951 138,247.151 C137.5,239.35 137.25,233.55 137.25,229.751 C137.75,226.984 137.75,223.018 137.25,217.851 C137.243,217.785 137.235,217.718 137.225,217.652 C137.242,217.481 137.25,217.381 137.25,217.351 C137.25,216.397 137.217,215.622 137.15,215.027 C145.712,217.969 155.429,219.461 166.299,219.502 C166.346,220.886 166.429,222.919 166.549,225.602 C166.782,230.703 167.016,234.669 167.249,237.502 L167.249,265.252 C167.482,265.719 167.599,267.302 167.599,270.002 L167.599,270.502 C167.685,271.985 168.126,272.811 168.924,272.977 C168.737,273.134 168.512,273.309 168.249,273.502 L11.749,273.502 L10.499,273.252 C10.5,273.219 10.492,273.186 10.475,273.15 Z M65.425,35 C66.132,34.097 66.874,33.281 67.65,32.55 C71.483,28.883 76.1,27.05 81.5,27.05 C91.634,27.05 98.616,28.633 102.45,31.8 C103.301,32.494 104.168,33.486 105.05,34.775 L89.75,35 C89.283,35.133 88.017,35.2 85.95,35.2 C83.883,35.2 82.65,35.133 82.25,35 L65.425,35 Z M31.75,83.25 C34.204,82.913 36.446,82.604 38.475,82.325 C38.699,83.009 38.974,83.651 39.3,84.25 C40.064,85.655 41.064,86.821 42.3,87.75 C42.267,88.139 42.25,88.589 42.25,89.1 C42.25,97.153 42.492,105.287 42.975,113.5 C42.281,113.635 41.556,113.769 40.8,113.9 C39.267,114.133 37.084,114.267 34.25,114.3 C34.05,112.3 33.683,107.234 33.15,99.1 C32.75,92.6 32.283,87.317 31.75,83.25 Z M102.775,175.15 L102.75,175.15 C102.55,175.25 102.4,175.299 102.3,175.299 C102.29,175.452 102.281,175.611 102.276,175.775 C100.685,175.871 98.093,175.979 94.501,176.099 C91.034,176.2 88.834,176.249 87.901,176.249 C75.734,176.249 69.667,174.966 69.701,172.399 C69.737,172.305 69.77,172.213 69.801,172.124 C76.969,172.707 81.036,172.999 82.001,172.999 C91.865,172.999 98.799,172.624 102.801,171.874 C102.807,173.006 102.798,174.098 102.775,175.15 Z M102.725,179.05 C102.735,179.085 102.744,179.119 102.75,179.151 C102.884,180.451 102.4,181.484 101.3,182.251 C97.734,182.551 95.234,182.885 93.8,183.251 L71.75,183.251 C71.55,182.351 71.4,181.234 71.3,179.901 C71.258,179.434 71.225,179.018 71.2,178.651 C73.139,178.837 76.123,179.02 80.15,179.201 C84.65,179.401 87.434,179.501 88.5,179.501 C89.434,179.501 91.667,179.451 95.2,179.351 C98.521,179.241 101.029,179.142 102.725,179.05 Z M103.225,164.15 C103.226,164.676 103.235,165.393 103.25,166.299 C103.25,167.433 103.1,168.249 102.8,168.749 C100.7,168.883 96.95,169.082 91.55,169.349 C86.017,169.616 82.95,169.749 82.35,169.749 C81.595,169.749 77.662,169.466 70.55,168.899 C70.316,168.684 69.883,168.559 69.25,168.524 C69.235,166.543 69.068,164.918 68.75,163.649 C71.145,164.323 72.978,164.773 74.25,164.999 L93.25,164.999 C96.029,164.739 99.354,164.456 103.225,164.15 Z" id="Shape" fill="#6F97AD"></path>
            <path d="M138.375,79.875 C137.94,81.529 137.148,83.337 136,85.3 C133.4,89.767 129.9,92 125.5,92 L125.15,92 C125.435,92.895 125.569,94.395 125.549,96.5 C125.549,98.333 125.449,100.183 125.249,102.05 C125.249,103.89 125.399,107.573 125.699,113.1 C129.39,112.889 133.574,112.355 138.249,111.5 L138.249,111.425 C138.183,111.283 138.149,111.008 138.149,110.6 C138.149,110.572 138.182,110.505 138.249,110.4 L138.249,107.3 C138.582,105.6 138.749,103 138.749,99.5 C138.749,97.433 138.916,94.25 139.249,89.95 C139.582,85.65 139.749,83.45 139.749,83.35 C139.849,82.617 139.782,81.9 139.549,81.2 C139.299,80.573 138.907,80.131 138.375,79.875 Z M136.525,270.45 C136.244,269.561 135.986,268.111 135.75,266.099 L135.75,264.95 C135.25,256.583 135,251.433 135,249.5 C135,247.1 134.917,244.517 134.75,241.75 C134.676,241.493 134.601,241.243 134.525,241 L134.375,234.55 C134.458,232.847 134.5,231.631 134.5,230.901 C134.333,227.8 134.25,225.501 134.25,224.001 C134.25,223.281 134.2,222.614 134.1,222.001 C134.099,221.951 134.099,221.901 134.1,221.851 C134.104,221.776 134.113,221.701 134.125,221.626 C133.894,219.61 133.776,217.752 133.775,216.051 L133.75,215.426 L133.75,214.402 L133.75,213.777 C127.084,211.082 121.168,207.44 116,202.851 C115.076,202.028 114.192,201.186 113.35,200.327 C113.09,200.636 112.69,200.861 112.151,201.002 L72.251,201.002 C72.099,200.865 71.933,200.716 71.751,200.552 C70.441,202.479 68.941,204.312 67.251,206.052 C60.918,212.559 52.827,216.943 42.976,219.202 C42.89,220.007 42.664,221.773 42.301,224.502 C42.162,225.494 42.037,226.386 41.926,227.177 C41.953,227.406 41.978,227.648 42.001,227.903 C42.101,230.369 42.001,232.636 41.701,234.703 C41.644,235.147 41.594,235.581 41.551,236.003 C41.564,236.383 41.58,236.782 41.601,237.203 C41.601,238.595 41.484,239.845 41.251,240.953 C41.248,243.516 41.214,246.066 41.151,248.602 C41.051,251.269 41.001,253.619 41.001,255.653 C41.001,256.92 40.951,258.886 40.851,261.552 C40.884,262.736 41.018,263.802 41.251,264.752 L41.251,270.302 L41.251,271.752 C41.184,271.852 41.068,272.102 40.901,272.502 C40.668,272.835 40.284,273.002 39.751,273.002 C39.233,273.002 38.841,272.102 38.576,270.302 C38.422,269.201 38.314,267.768 38.251,266.002 L38.251,259.002 C38.251,253.402 38.334,247.318 38.501,240.752 C38.668,234.152 38.751,227.436 38.751,220.602 C38.751,220.386 38.768,220.195 38.801,220.028 C34.724,220.677 30.374,221.003 25.751,221.003 C18.384,221.003 13.618,220.803 11.451,220.403 C11.205,220.356 10.955,220.315 10.701,220.278 C10.901,221.241 11.001,222.666 11.001,224.552 L11.001,227.502 C11.019,227.746 11.035,227.996 11.051,228.252 C11.184,230.219 11.251,234.835 11.251,242.102 L11.251,256.252 C11.178,259.028 11.061,261.37 10.901,263.277 C10.968,264.687 11.001,265.895 11.001,266.902 L11.001,270.402 C10.999,270.469 10.999,270.536 11.001,270.601 C10.935,272.018 10.76,272.868 10.476,273.152 C10.409,273.218 10.334,273.252 10.251,273.252 C9.418,273.252 8.918,271.785 8.751,268.852 L8.751,266.028 C8.445,261.997 8.111,254.439 7.751,243.352 C8.036,233.327 8.211,225.519 8.276,219.927 C6.423,219.706 4.415,219.565 2.251,219.502 C1.584,218.936 1.184,218.568 1.051,218.402 C0.851,218.235 0.751,218.018 0.751,217.752 C0.751,215.618 1.684,212.519 3.551,208.452 C5.751,203.719 8.551,199.351 11.951,195.351 C21.318,184.251 32.251,179.218 44.751,180.251 C56.184,180.117 63.568,180.501 66.901,181.401 C67.499,181.572 68.09,181.804 68.676,182.1 C68.667,182.067 68.659,182.033 68.651,182 C68.051,179.5 67.751,177.783 67.751,176.85 C67.751,176.156 67.943,175.523 68.326,174.951 C68.302,174.867 68.277,174.784 68.251,174.701 C67.584,172.635 67.251,171.234 67.251,170.501 L67.251,170.076 C67.063,169.497 66.863,168.789 66.651,167.951 C66.051,165.751 65.751,164.234 65.751,163.401 C65.751,163.188 65.759,162.988 65.776,162.8 C65.082,162.597 64.358,162.381 63.601,162.151 C58.534,160.617 55.018,159.668 53.051,159.3 C47.485,158.267 44.618,156.901 44.451,155.2 C44.384,154.7 44.584,153.917 45.051,152.849 C45.518,151.716 45.751,150.849 45.751,150.249 C45.751,147.416 45.584,144.049 45.251,140.149 C44.784,135.682 44.451,132.298 44.251,129.999 C43.837,125.697 43.487,121.413 43.201,117.149 C43.061,117.266 42.911,117.383 42.751,117.499 L32.751,117.499 C32.403,116.546 32.028,114.838 31.626,112.374 C31.443,112.457 31.234,112.499 31.001,112.499 C28.134,112.499 25.901,110.082 24.301,105.249 C23.268,102.049 22.751,99.416 22.751,97.349 C22.751,94.382 23.218,91.849 24.151,89.749 C25.171,87.394 26.713,85.786 28.776,84.924 C28.759,84.492 28.751,84.117 28.751,83.799 C28.751,82.499 28.851,81.649 29.051,81.249 C29.718,79.849 31.284,79.349 33.751,79.749 C33.751,79.598 35.126,79.514 37.876,79.499 C37.793,78.785 37.751,78.035 37.751,77.249 C37.751,73.316 39.268,70.016 42.301,67.349 C42.676,67.015 43.059,66.699 43.451,66.399 C43.088,65.748 42.855,64.548 42.751,62.799 L42.751,58.499 C43.084,52.699 43.251,48.299 43.251,45.299 C43.751,43.466 44.084,41.366 44.251,38.999 C44.151,38.232 44.118,37.782 44.151,37.649 C44.218,37.482 44.734,37.382 45.701,37.349 C49.967,37.129 55.15,36.554 61.251,35.624 L61.251,35.399 C61.251,33.399 63.801,30.882 68.901,27.849 C74.234,24.649 78.684,23.382 82.251,24.049 C82.547,23.998 82.839,23.948 83.126,23.899 C82.957,23.417 82.832,22.767 82.751,21.949 L82.751,18.749 C82.751,14.616 83.251,12.432 84.251,12.199 C85.251,11.966 85.751,14.116 85.751,18.649 C85.751,20.597 85.701,22.264 85.601,23.649 C91.127,23.301 96.36,24.501 101.301,27.249 C103.501,28.482 105.334,29.849 106.801,31.349 C108.101,32.716 108.751,33.766 108.751,34.499 L108.751,34.699 C111.598,34.758 117.431,35.025 126.251,35.499 C127.584,36.466 128.251,37.832 128.251,39.599 C128.251,40.099 127.751,44.566 126.751,52.999 C126.682,53.582 126.615,54.166 126.551,54.749 C128.353,55.607 129.919,56.908 131.251,58.649 L131.051,59.799 L130.801,60.149 C130.601,60.382 130.251,60.499 129.751,60.499 C128.651,59.866 127.468,59.249 126.201,58.649 C126.161,58.629 126.12,58.613 126.076,58.599 C125.871,60.333 125.662,62.058 125.451,63.774 C128.865,63.99 131.782,65.098 134.201,67.099 C137.209,69.545 138.725,72.845 138.751,76.999 C138.915,77.02 139.082,77.053 139.251,77.099 C141.584,77.766 142.751,79.699 142.751,82.899 C142.751,83.442 142.734,84.118 142.701,84.924 C146.334,85.803 148.151,89.495 148.151,95.999 C148.151,98.499 147.668,101.366 146.701,104.599 C145.201,109.532 143.017,111.999 140.151,111.999 C140.018,113.135 139.885,114.301 139.751,115.499 C132.516,116.056 127.891,116.38 125.876,116.474 C126.209,122.259 126.667,129.634 127.251,138.599 C127.251,141.366 127.367,145.582 127.601,151.249 C127.535,156.016 126.751,159.766 125.251,162.499 C118.112,163.001 111.871,163.459 106.526,163.874 C106.675,164.635 106.751,165.626 106.751,166.849 C106.751,167.349 106.901,168.082 107.201,169.049 C107.261,169.796 106.902,170.397 106.126,170.849 C106.209,171.389 106.251,171.989 106.251,172.65 C106.251,174.15 106.201,175.099 106.101,175.5 C105.993,175.885 105.818,176.285 105.577,176.7 C105.652,176.938 105.711,177.206 105.752,177.5 C105.852,178.366 105.852,179.233 105.752,180.1 L105.752,180.3 C108.356,179.815 112.655,179.798 118.652,180.25 C129.085,181.05 136.385,182.566 140.551,184.8 C143.117,185.3 146.367,186.583 150.301,188.651 C152.294,189.714 153.936,190.698 155.226,191.6 C156.596,191.691 159.404,194.074 163.652,198.75 C166.183,201.539 168.2,203.956 169.702,206 C172.735,209.312 174.252,212.528 174.252,215.65 C174.252,216.616 174.235,217.2 174.202,217.4 C174.002,218.099 173.518,218.633 172.752,219 C171.409,219.142 170.275,219.25 169.352,219.325 C169.619,220.806 169.752,222.632 169.752,224.8 C169.752,230.1 169.919,234.1 170.252,236.8 L170.252,264.25 C170.585,265.25 170.752,266.667 170.752,268.5 L170.752,271.3 C170.618,272.434 170.118,273 169.252,273 C169.142,273 169.033,272.991 168.927,272.975 C168.129,272.809 167.688,271.984 167.602,270.5 L167.602,270 C167.602,267.3 167.486,265.717 167.252,265.25 L167.252,237.5 C167.019,234.667 166.785,230.7 166.552,225.6 C166.432,222.917 166.349,220.884 166.302,219.5 C155.432,219.459 145.715,217.968 137.153,215.025 C137.219,215.62 137.253,216.395 137.253,217.349 C137.253,217.379 137.244,217.479 137.228,217.65 C137.239,217.716 137.247,217.783 137.253,217.849 C137.753,223.016 137.753,226.983 137.253,229.749 C137.253,233.549 137.503,239.349 138.003,247.149 C138.503,254.949 138.753,260.765 138.753,264.598 L138.753,268.298 C138.682,269.21 138.549,269.927 138.353,270.448 C138.097,271.148 137.731,271.498 137.253,271.498 C136.996,271.5 136.754,271.15 136.525,270.45 Z M135.75,77 C135.75,73.967 134.55,71.517 132.15,69.65 C129.983,67.983 127.349,67.117 124.25,67.05 C124.062,67.046 123.878,67.046 123.7,67.05 C121.918,66.548 120.034,66.815 118.05,67.85 C116.036,68.878 114.653,70.353 113.901,72.275 C113.134,73.8 112.751,75.625 112.751,77.75 C112.751,77.817 112.768,78.417 112.801,79.55 C112.968,80.883 113.301,82.117 113.801,83.25 C115.283,86.426 118.017,88.16 122.001,88.45 C122.979,88.65 124.028,88.75 125.151,88.75 C128.463,88.75 131.105,87.217 133.076,84.15 C134.526,82.963 135.251,81.78 135.251,80.6 C135.251,80.455 135.185,80.239 135.051,79.95 C135.371,78.986 135.604,78.003 135.75,77 Z M142.475,88.375 C142.154,92.679 141.553,98.937 140.675,107.15 C140.971,106.768 141.296,106.351 141.651,105.9 C143.984,102.367 145.151,99.067 145.151,96 C145.151,93.867 144.484,91.7 143.151,89.5 C142.901,89.09 142.677,88.715 142.475,88.375 Z M149.2,86.4 L148.9,86.25 C148.9,86.183 148.866,86.1 148.799,86 C148.699,85.9 148.65,85.6 148.65,85.1 C148.65,84.433 149.316,83.7 150.65,82.9 C151.983,82.1 153.2,81.717 154.299,81.75 C154.299,81.783 154.365,81.867 154.499,82 C154.599,82.167 154.649,82.5 154.649,83 C154.649,83.333 154.032,84 152.798,85 C151.564,86 150.765,86.5 150.399,86.5 C149.866,86.5 149.467,86.467 149.2,86.4 Z M159,92 C159.1,92.167 159.15,92.5 159.15,93 C159.15,93.533 158.866,93.967 158.299,94.3 C157.599,94.767 156.549,95 155.15,95 L152.4,94.75 C152.4,94.683 152.366,94.533 152.299,94.3 C152.199,94.1 152.15,93.75 152.15,93.25 C152.15,92.417 152.366,91.917 152.799,91.75 C153.133,91.583 154.082,91.5 155.65,91.5 C156.983,91.5 158.033,91.583 158.799,91.75 C158.8,91.783 158.866,91.867 159,92 Z M155.5,103 C156.934,103.833 157.65,104.5 157.65,105 C157.65,106 157.066,106.5 155.9,106.5 C154.4,106.5 153.25,105.933 152.45,104.8 L151.65,103.1 C151.65,102.567 151.683,102.2 151.75,102 L151.8,101.8 C152.767,101.733 154,102.133 155.5,103 Z M168.85,216.05 C169.544,215.968 170.344,215.868 171.25,215.75 C167.017,203.316 156.866,194.05 140.8,187.95 C134.567,185.583 128.151,184.016 121.55,183.25 C115.517,182.55 110.583,182.634 106.75,183.5 C108.917,190.1 112.85,195.983 118.55,201.15 C129.717,211.216 145.583,216.25 166.151,216.25 L166.376,216.25 C166.383,216.222 166.392,216.197 166.401,216.175 C166.806,216.225 167.256,216.25 167.751,216.25 C168.176,216.25 168.542,216.184 168.85,216.05 Z M70.8,9.4 L70.5,9.25 C70.5,9.183 70.467,9.1 70.4,9 C70.3,8.9 70.25,8.6 70.25,8.1 C70.25,5.733 71.733,3.833 74.7,2.4 C77.4,1.1 80.666,0.45 84.5,0.45 C88.366,0.416 91.634,1.067 94.3,2.4 C97.267,3.9 98.75,5.933 98.75,8.5 C98.75,9.5 98.167,10 97,10 C96.967,10 95.95,8.85 93.95,6.55 C91.95,4.217 89.816,3.05 87.55,3.05 C82.817,3.05 79,4.133 76.1,6.3 C74.033,8.433 72.666,9.5 72,9.5 C71.467,9.5 71.067,9.467 70.8,9.4 Z M77.4,11 C77.3,10.9 77.25,10.6 77.25,10.1 C77.25,7.8 79.5,6.467 84,6.1 C88.5,5.733 90.75,6.733 90.75,9.1 C90.75,9.567 90.717,9.867 90.65,10 C90.549,10.167 90.5,10.35 90.5,10.55 L90.25,10.8 C90.083,10.933 89.75,11 89.25,11 C88.783,11 88.15,10.683 87.35,10.05 C86.65,9.383 86.284,9.05 86.25,9.05 C83.183,9.05 81.367,9.467 80.8,10.3 C80.234,11.1 79.633,11.5 79,11.5 C78.467,11.5 78.067,11.467 77.8,11.4 L77.5,11.25 C77.5,11.183 77.467,11.1 77.4,11 Z M58.95,39.15 C54.35,39.65 50.467,39.683 47.3,39.25 C47.033,40.783 46.6,46.283 46,55.75 C45.688,60.419 45.347,63.636 44.975,65.4 C47.132,64.142 49.557,63.409 52.25,63.2 C56.217,62.9 59.533,63.85 62.2,66.05 C65.233,68.584 66.75,72.317 66.75,77.25 C66.75,79.983 66.033,82.483 64.6,84.75 C62.133,88.583 58.017,90.5 52.25,90.5 C49.377,90.5 46.919,90.075 44.875,89.225 C45.253,90.198 45.545,91.206 45.75,92.25 C45.75,94.45 45.85,98.05 46.05,103.05 C46.15,105.183 46.267,108.767 46.4,113.8 C46.5,118.334 46.617,121.9 46.75,124.5 C46.85,127 47.167,130.533 47.7,135.1 C48.266,140.233 48.617,143.8 48.75,145.8 C48.783,146.8 48.617,148.616 48.25,151.25 C48.317,153.55 49.417,155.05 51.55,155.75 C53.584,156.384 57.317,157.583 62.75,159.35 C67.617,160.817 71.133,161.634 73.3,161.8 L94.3,161.8 C96.667,161.567 100.083,161.467 104.55,161.5 C109.616,161.3 116.017,160.3 123.75,158.5 C124.616,158.3 124.884,157.4 124.55,155.8 L123.75,151.75 C123.75,150.116 123.833,147.55 124,144.05 C124.167,140.55 124.25,138.717 124.25,138.55 C123.618,128.706 123.135,120.789 122.8,114.8 C122.767,114.652 122.75,114.502 122.75,114.35 L122.75,114.025 C122.417,107.827 122.25,103.819 122.25,102 C122.56,97.698 122.743,94.314 122.8,91.85 C117.869,91.284 114.269,89.1 112,85.3 C110.5,82.767 109.75,80.033 109.75,77.1 C109.75,72.933 111.267,69.6 114.3,67.1 C116.955,64.936 120.205,63.82 124.05,63.75 C123.909,63.111 123.81,62.294 123.75,61.3 L123.75,57.55 C122.423,57.017 121.373,56.75 120.6,56.75 C118.833,56.75 117.034,57.217 115.201,58.15 C113.701,59.05 112.801,59.5 112.501,59.5 C111.968,59.5 111.567,59.467 111.301,59.4 L111.001,59.25 C111.001,59.183 110.968,59.1 110.901,59 C110.8,58.9 110.751,58.6 110.751,58.1 C110.751,57.1 111.501,56.166 113.001,55.3 C114.501,54.4 116.317,53.834 118.451,53.6 C120.37,53.391 122.137,53.457 123.751,53.8 C123.772,51.897 123.806,50.763 123.851,50.4 C124.218,48.3 124.685,45.25 125.251,41.25 L125.251,38.55 C122.451,38.517 119.067,38.383 115.101,38.15 L109.251,37.75 L89.551,38.25 C89.152,38.383 87.968,38.45 86.001,38.45 C84.001,38.45 82.768,38.383 82.301,38.25 L65.501,38.25 C63.433,38.583 61.25,38.883 58.95,39.15 Z M65.425,35 L82.25,35 C82.65,35.133 83.883,35.2 85.95,35.2 C88.016,35.2 89.283,35.133 89.75,35 L105.05,34.775 C104.168,33.485 103.301,32.494 102.45,31.8 C98.616,28.633 91.634,27.05 81.5,27.05 C76.1,27.05 71.483,28.883 67.65,32.55 C66.874,33.281 66.132,34.097 65.425,35 Z M48.25,57.6 C48.25,56.333 49.133,55.317 50.9,54.55 C52.533,53.85 54.483,53.5 56.75,53.5 C59.083,53.5 61.033,53.867 62.6,54.6 C64.367,55.433 65.25,56.567 65.25,58 C65.25,58.467 65.217,58.7 65.15,58.7 C65.05,58.733 65,58.85 65,59.05 L64.65,59.3 C64.383,59.433 64,59.5 63.5,59.5 C62.767,59.5 62.033,59.017 61.3,58.05 C60.567,57.05 58.667,56.55 55.6,56.55 C54.3,56.55 53.133,56.9 52.1,57.6 C50.767,58.467 49.983,58.933 49.75,59 C48.75,58.033 48.25,57.567 48.25,57.6 Z M15.5,89.8 L14.75,88.1 L14.8,86.8 C15.6,86.8 16.8,87.25 18.4,88.15 C19.967,89.017 20.75,89.633 20.75,90 C20.75,91 20.167,91.5 19,91.5 C17.467,91.5 16.3,90.933 15.5,89.8 Z M28.75,89.9 C26.75,92.6 25.75,95 25.75,97.1 C25.75,99.5 26.317,101.817 27.45,104.05 C28.275,105.649 29.516,107.407 31.175,109.325 C30.837,106.794 30.479,103.735 30.1,100.15 C29.637,95.78 29.296,92.222 29.075,89.475 C28.968,89.609 28.859,89.75 28.75,89.9 Z M49.35,71.6 C50.65,70.333 52.2,69.617 54,69.45 C55.833,69.317 57.383,69.8 58.65,70.9 C60.05,72.2 60.75,74.067 60.75,76.5 C60.75,78.433 60.5,79.867 60,80.8 C59.033,82.6 57.117,83.5 54.25,83.5 C51.483,83.5 49.483,82.433 48.25,80.3 C47.583,78.133 47.25,77 47.25,76.9 C47.25,74.8 47.95,73.033 49.35,71.6 Z M40.75,77 C40.75,79.467 41.333,81.55 42.5,83.25 C44.367,85.917 47.483,87.25 51.85,87.25 C54.397,87.25 56.564,86.783 58.35,85.85 C58.26,85.87 58.168,85.886 58.075,85.9 C58.651,85.568 59.184,85.16 59.675,84.675 C60.867,83.976 61.808,83.001 62.5,81.75 C63.333,80.25 63.75,78.367 63.75,76.1 C63.75,72.9 62.867,70.5 61.1,68.9 C60.418,68.288 59.685,67.846 58.9,67.575 C57.029,66.515 54.813,66.107 52.25,66.35 C49.183,66.617 46.55,67.7 44.35,69.6 C41.95,71.667 40.75,74.133 40.75,77 Z M31.75,83.25 C32.283,87.317 32.75,92.6 33.15,99.1 C33.683,107.233 34.05,112.3 34.25,114.3 C37.083,114.267 39.267,114.133 40.8,113.9 C41.556,113.769 42.281,113.635 42.975,113.5 C42.492,105.287 42.25,97.153 42.25,89.1 C42.25,88.589 42.267,88.139 42.3,87.75 C41.064,86.821 40.064,85.655 39.3,84.25 C38.974,83.651 38.699,83.009 38.475,82.325 C36.446,82.604 34.204,82.913 31.75,83.25 Z M19.55,99 C19.683,99.167 19.75,99.5 19.75,100 C19.75,100.533 19.467,100.967 18.9,101.3 C18.133,101.6 17.584,101.834 17.25,102 L13.75,102 C13.417,101.7 13.017,101.35 12.55,100.95 C12.35,100.783 12.25,100.666 12.25,100.6 C12.25,99.833 12.583,99.367 13.25,99.2 C13.917,99.033 15.933,98.883 19.3,98.75 C19.3,98.783 19.383,98.867 19.55,99 Z M17,114.25 C17,114.183 16.967,114.1 16.9,114 C16.8,113.9 16.75,113.6 16.75,113.1 C16.75,112.433 17.35,111.6 18.55,110.6 C19.917,109.467 21.334,109.017 22.8,109.25 C22.8,109.283 22.883,109.367 23.05,109.5 C23.183,109.667 23.25,110 23.25,110.5 C23.25,110.933 22.6,111.7 21.3,112.8 C20,113.933 19.067,114.5 18.5,114.5 C17.967,114.5 17.567,114.467 17.3,114.4 L17,114.25 Z M122,70 C123.8,70.167 125.35,70.883 126.65,72.15 C128.049,73.584 128.75,75.35 128.75,77.45 C128.75,77.55 128.417,78.683 127.75,80.85 C126.517,82.983 124.517,84.05 121.75,84.05 C118.884,84.05 116.967,83.15 116,81.35 C115.5,80.416 115.25,78.983 115.25,77.05 C115.25,74.617 115.95,72.75 117.35,71.45 C118.616,70.35 120.167,69.867 122,70 Z M64.75,128.3 C66.75,131.267 72.117,132.75 80.85,132.75 C94.35,132.75 103.366,130.833 107.9,127 C110.2,125.033 111.15,122.95 110.75,120.75 C108.116,121.35 105.483,121.95 102.85,122.55 C97.617,123.75 93.417,124.567 90.25,125 L73.75,125 C69.317,124.367 67,124.05 66.8,124.05 C66.267,124.05 65.767,124.084 65.3,124.15 L64.75,124.25 L64.75,128.3 L64.75,128.3 Z M63.5,120.5 C64.6,120.5 66.25,120.7 68.45,121.1 C70.916,121.533 72.367,121.767 72.8,121.8 L90.3,121.75 C98.033,120.35 104.85,118.9 110.75,117.4 C112.116,117.2 112.983,117.417 113.35,118.05 C113.617,118.517 113.75,119.75 113.75,121.75 C113.75,125.317 112.083,128.233 108.75,130.5 C103.35,134.167 93.934,136 80.5,136 C70.533,136 64.367,134.1 62,130.3 C61.233,129.1 60.883,127.683 60.95,126.05 C61.15,124.55 61.25,123.65 61.25,123.35 C61.25,122.517 61.433,121.85 61.8,121.35 C62.2,120.783 62.767,120.5 63.5,120.5 Z M103.225,164.15 C99.354,164.456 96.03,164.739 93.25,165 L74.25,165 C72.978,164.774 71.145,164.324 68.75,163.65 C69.068,164.919 69.235,166.544 69.25,168.525 C69.882,168.56 70.315,168.685 70.55,168.9 C77.662,169.466 81.595,169.75 82.35,169.75 C82.95,169.75 86.017,169.616 91.55,169.35 C96.95,169.083 100.7,168.884 102.8,168.75 C103.1,168.25 103.25,167.434 103.25,166.3 C103.234,165.394 103.226,164.677 103.225,164.15 Z M102.725,179.05 C101.03,179.142 98.521,179.241 95.201,179.35 C91.668,179.451 89.434,179.5 88.501,179.5 C87.435,179.5 84.651,179.4 80.151,179.2 C76.124,179.019 73.141,178.836 71.201,178.65 C71.226,179.017 71.259,179.433 71.301,179.9 C71.401,181.233 71.551,182.349 71.751,183.25 L93.801,183.25 C95.235,182.884 97.735,182.55 101.301,182.25 C102.402,181.483 102.885,180.45 102.751,179.15 C102.743,179.119 102.734,179.085 102.725,179.05 Z M102.775,175.15 C102.797,174.097 102.806,173.005 102.799,171.875 C98.797,172.625 91.863,173 81.999,173 C81.034,173 76.967,172.708 69.799,172.125 C69.768,172.215 69.735,172.307 69.699,172.4 C69.665,174.966 75.732,176.25 87.899,176.25 C88.832,176.25 91.032,176.2 94.499,176.1 C98.092,175.98 100.684,175.871 102.274,175.776 C102.28,175.612 102.289,175.454 102.298,175.3 C102.399,175.3 102.548,175.25 102.748,175.151 L102.775,175.151 L102.775,175.15 Z M103.325,185.2 C101.383,186.188 98.357,186.621 94.25,186.5 L77.225,186.5 C77.242,186.61 77.25,186.728 77.25,186.85 C77.25,188.817 76.533,191.401 75.1,194.6 C74.582,195.756 74.007,196.881 73.375,197.975 L88.55,197.8 L91.151,197.55 L91.151,197.5 L110.751,197.5 C108.805,195.208 107.121,192.808 105.701,190.3 C104.605,188.333 103.813,186.633 103.325,185.2 Z M69.875,185.975 C64.665,184.985 60.473,184.077 57.3,183.25 L44.55,183.25 C28.75,186.517 18.017,191.733 12.35,198.9 C10.416,201.333 8.8,204.366 7.5,208 C5.533,213.467 4.533,216.233 4.5,216.3 C6.633,216.234 10.183,216.45 15.15,216.95 C20.35,217.483 23.85,217.75 25.65,217.75 C43.517,217.75 57.1,212.3 66.4,201.4 C69.233,198.099 71.6,194.333 73.5,190.099 C74.096,188.753 74.629,187.553 75.1,186.499 L70.25,186.499 C70.13,186.417 70.005,186.242 69.875,185.975 Z" id="Shape" fill="#000000" fill-rule="nonzero"></path>
            <path d="M135.75,77 C135.604,78.003 135.371,78.986 135.05,79.95 C135.184,80.239 135.25,80.455 135.25,80.6 C135.25,81.78 134.525,82.963 133.075,84.15 C131.104,87.217 128.463,88.75 125.15,88.75 C124.027,88.75 122.977,88.65 122,88.45 C118.016,88.159 115.282,86.426 113.8,83.25 C113.3,82.117 112.967,80.883 112.8,79.55 C112.767,78.417 112.75,77.817 112.75,77.75 C112.75,75.625 113.134,73.8 113.9,72.275 C114.652,70.353 116.036,68.878 118.049,67.85 C120.033,66.814 121.917,66.548 123.699,67.05 C123.877,67.046 124.06,67.046 124.249,67.05 C127.349,67.117 129.982,67.984 132.149,69.65 C134.55,71.517 135.75,73.967 135.75,77 Z M40.75,77 C40.75,74.133 41.95,71.667 44.35,69.6 C46.55,67.7 49.183,66.617 52.25,66.35 C54.812,66.107 57.029,66.516 58.9,67.575 C59.685,67.846 60.419,68.288 61.1,68.9 C62.867,70.5 63.75,72.9 63.75,76.1 C63.75,78.367 63.333,80.25 62.5,81.75 C61.808,83.001 60.867,83.976 59.675,84.675 C59.185,85.16 58.652,85.568 58.075,85.9 C58.168,85.886 58.26,85.87 58.35,85.85 C56.564,86.783 54.397,87.25 51.85,87.25 C47.483,87.25 44.367,85.917 42.5,83.25 C41.333,81.55 40.75,79.467 40.75,77 Z M49.35,71.6 C47.95,73.033 47.25,74.8 47.25,76.9 C47.25,77 47.583,78.133 48.25,80.3 C49.483,82.433 51.483,83.5 54.25,83.5 C57.117,83.5 59.033,82.6 60,80.8 C60.5,79.867 60.75,78.433 60.75,76.5 C60.75,74.067 60.05,72.2 58.65,70.9 C57.383,69.8 55.834,69.317 54,69.45 C52.2,69.617 50.65,70.333 49.35,71.6 Z M122,70 C120.167,69.867 118.616,70.35 117.35,71.45 C115.951,72.75 115.25,74.617 115.25,77.05 C115.25,78.984 115.5,80.417 116,81.35 C116.967,83.15 118.884,84.05 121.75,84.05 C124.517,84.05 126.517,82.984 127.75,80.85 C128.417,78.683 128.75,77.55 128.75,77.45 C128.75,75.35 128.05,73.583 126.65,72.15 C125.35,70.883 123.8,70.167 122,70 Z M64.75,128.3 L64.75,124.25 L65.3,124.15 C65.767,124.084 66.267,124.05 66.8,124.05 C67,124.05 69.317,124.367 73.75,125 L90.25,125 C93.417,124.567 97.616,123.75 102.85,122.55 C105.484,121.95 108.117,121.35 110.75,120.75 C111.15,122.95 110.2,125.033 107.9,127 C103.366,130.833 94.349,132.75 80.85,132.75 C72.117,132.75 66.75,131.267 64.75,128.3 Z" id="Shape" fill="#FFFFFF"></path>
            <path d="M142.475,88.375 C142.677,88.715 142.902,89.09 143.151,89.5 C144.484,91.7 145.151,93.867 145.151,96 C145.151,99.067 143.984,102.367 141.651,105.9 C141.297,106.351 140.971,106.768 140.675,107.15 C141.553,98.938 142.153,92.679 142.475,88.375 Z M168.85,216.05 C168.542,216.184 168.176,216.25 167.75,216.25 C167.256,216.25 166.806,216.225 166.4,216.175 C166.39,216.197 166.381,216.222 166.375,216.25 L166.15,216.25 C145.583,216.25 129.716,211.217 118.549,201.15 C112.849,195.983 108.916,190.099 106.749,183.5 C110.582,182.634 115.516,182.55 121.549,183.25 C128.15,184.017 134.566,185.583 140.799,187.95 C156.865,194.05 167.016,203.316 171.249,215.75 C170.344,215.868 169.544,215.968 168.85,216.05 Z M28.75,89.9 C28.859,89.751 28.968,89.609 29.075,89.475 C29.296,92.222 29.637,95.78 30.1,100.15 C30.479,103.735 30.837,106.794 31.175,109.325 C29.517,107.407 28.275,105.648 27.45,104.05 C26.317,101.817 25.75,99.5 25.75,97.1 C25.75,95 26.75,92.6 28.75,89.9 Z M69.875,185.975 C70.005,186.243 70.13,186.417 70.25,186.5 L75.1,186.5 C74.629,187.554 74.096,188.754 73.5,190.1 C71.6,194.333 69.233,198.1 66.4,201.401 C57.1,212.3 43.517,217.751 25.65,217.751 C23.85,217.751 20.35,217.484 15.15,216.951 C10.183,216.451 6.633,216.234 4.5,216.301 C4.533,216.235 5.533,213.468 7.5,208.001 C8.8,204.367 10.417,201.334 12.35,198.901 C18.017,191.734 28.75,186.517 44.55,183.251 L57.3,183.251 C60.473,184.076 64.665,184.984 69.875,185.975 Z" id="Shape" fill="#96CBE8"></path>
            <path d="M41.25,270.3 L41.25,264.75 C41.017,263.8 40.883,262.733 40.85,261.55 C40.95,258.884 41,256.917 41,255.651 C41,253.617 41.05,251.267 41.15,248.6 C41.213,246.064 41.247,243.514 41.25,240.951 C41.483,239.843 41.6,238.593 41.6,237.201 C41.579,236.78 41.562,236.381 41.55,236.001 C41.593,235.579 41.643,235.146 41.7,234.701 C42,232.635 42.1,230.367 42,227.901 C41.977,227.646 41.952,227.405 41.925,227.175 C42.036,226.384 42.161,225.492 42.3,224.5 C42.664,221.771 42.889,220.005 42.975,219.2 C52.826,216.94 60.917,212.556 67.25,206.05 C68.94,204.31 70.44,202.477 71.75,200.55 C71.932,200.714 72.098,200.863 72.25,201 L112.15,201 C112.689,200.859 113.089,200.634 113.349,200.325 C114.192,201.184 115.076,202.026 115.999,202.849 C121.167,207.438 127.083,211.079 133.749,213.775 L133.749,214.4 L133.749,215.424 L133.774,216.049 C133.775,217.75 133.892,219.609 134.124,221.624 C134.111,221.698 134.103,221.773 134.099,221.849 C134.098,221.9 134.098,221.95 134.099,221.999 C134.2,222.612 134.249,223.279 134.249,223.999 C134.249,225.499 134.332,227.799 134.499,230.899 C134.499,231.629 134.457,232.845 134.374,234.548 L134.524,240.998 C134.599,241.241 134.674,241.491 134.749,241.748 C134.916,244.515 134.999,247.098 134.999,249.498 C134.999,251.432 135.249,256.581 135.749,264.948 L135.749,266.097 C135.985,268.109 136.243,269.559 136.524,270.448 L41.25,270.3 Z M58.95,39.15 C61.25,38.883 63.433,38.584 65.5,38.25 L82.3,38.25 C82.767,38.383 84,38.45 86,38.45 C87.967,38.45 89.15,38.383 89.55,38.25 L109.25,37.75 L115.1,38.15 C119.067,38.383 122.451,38.517 125.25,38.55 L125.25,41.25 C124.684,45.25 124.217,48.3 123.85,50.4 C123.805,50.763 123.772,51.897 123.75,53.8 C122.136,53.458 120.369,53.391 118.45,53.6 C116.316,53.833 114.5,54.4 113,55.3 C111.5,56.167 110.75,57.1 110.75,58.1 C110.75,58.6 110.8,58.9 110.9,59 C110.966,59.1 111,59.183 111,59.25 L111.3,59.4 C111.567,59.467 111.967,59.5 112.5,59.5 C112.8,59.5 113.7,59.05 115.2,58.15 C117.033,57.217 118.833,56.75 120.599,56.75 C121.372,56.75 122.422,57.017 123.749,57.55 L123.749,61.3 C123.809,62.294 123.908,63.111 124.049,63.75 C120.204,63.82 116.954,64.937 114.299,67.1 C111.266,69.6 109.749,72.933 109.749,77.1 C109.749,80.033 110.499,82.767 111.999,85.3 C114.268,89.1 117.868,91.284 122.799,91.85 C122.742,94.314 122.559,97.698 122.249,102 C122.249,103.819 122.416,107.827 122.749,114.025 L122.749,114.35 C122.749,114.501 122.766,114.651 122.799,114.8 C123.134,120.789 123.617,128.706 124.249,138.55 C124.249,138.717 124.166,140.55 123.999,144.05 C123.832,147.55 123.749,150.116 123.749,151.75 L124.549,155.8 C124.883,157.401 124.615,158.3 123.749,158.5 C116.016,160.3 109.615,161.3 104.549,161.5 C100.082,161.467 96.666,161.566 94.299,161.8 L73.299,161.8 C71.132,161.634 67.616,160.817 62.749,159.35 C57.316,157.583 53.582,156.384 51.549,155.75 C49.416,155.05 48.316,153.55 48.249,151.25 C48.616,148.616 48.782,146.8 48.749,145.8 C48.616,143.8 48.266,140.234 47.699,135.1 C47.165,130.533 46.849,127 46.749,124.5 C46.616,121.9 46.499,118.333 46.399,113.8 C46.266,108.767 46.149,105.183 46.049,103.05 C45.849,98.05 45.749,94.45 45.749,92.25 C45.544,91.206 45.252,90.198 44.874,89.225 C46.918,90.075 49.376,90.5 52.249,90.5 C58.016,90.5 62.132,88.583 64.599,84.75 C66.032,82.483 66.749,79.983 66.749,77.25 C66.749,72.317 65.232,68.583 62.199,66.05 C59.532,63.85 56.216,62.9 52.249,63.2 C49.556,63.408 47.131,64.142 44.974,65.4 C45.346,63.636 45.687,60.42 45.999,55.75 C46.599,46.283 47.032,40.783 47.299,39.25 C50.467,39.683 54.35,39.65 58.95,39.15 Z M48.25,57.6 C48.25,57.567 48.75,58.033 49.75,59 C49.983,58.933 50.767,58.467 52.1,57.6 C53.133,56.9 54.3,56.55 55.6,56.55 C58.666,56.55 60.567,57.05 61.3,58.05 C62.033,59.017 62.767,59.5 63.5,59.5 C64,59.5 64.383,59.433 64.65,59.3 L65,59.05 C65,58.85 65.05,58.734 65.15,58.7 C65.217,58.7 65.25,58.467 65.25,58 C65.25,56.567 64.367,55.433 62.6,54.6 C61.033,53.867 59.083,53.5 56.75,53.5 C54.483,53.5 52.533,53.85 50.9,54.55 C49.133,55.317 48.25,56.333 48.25,57.6 Z M63.5,120.5 C62.767,120.5 62.2,120.783 61.8,121.35 C61.433,121.85 61.25,122.517 61.25,123.35 C61.25,123.65 61.15,124.55 60.95,126.05 C60.883,127.683 61.233,129.1 62,130.3 C64.367,134.1 70.533,136 80.5,136 C93.934,136 103.35,134.167 108.75,130.5 C112.083,128.233 113.75,125.317 113.75,121.75 C113.75,119.75 113.616,118.517 113.35,118.05 C112.984,117.417 112.117,117.2 110.75,117.4 C104.85,118.9 98.033,120.35 90.3,121.75 L72.8,121.8 C72.367,121.767 70.917,121.533 68.45,121.1 C66.25,120.7 64.6,120.5 63.5,120.5 Z M103.325,185.2 C103.813,186.633 104.605,188.333 105.7,190.3 C107.12,192.808 108.804,195.208 110.75,197.5 L91.15,197.5 L91.15,197.55 L88.549,197.8 L73.374,197.975 C74.006,196.881 74.582,195.756 75.099,194.6 C76.532,191.401 77.249,188.817 77.249,186.85 C77.249,186.728 77.241,186.611 77.224,186.5 L94.249,186.5 C98.357,186.621 101.383,186.188 103.325,185.2 Z" id="Shape" fill="#77B0D1"></path>
            <path d="M89,206 C90.866,205.8 91.7,207.667 91.5,211.6 C91.4,213.567 91.25,216.284 91.05,219.75 L112.25,219.75 C113.05,219.917 113.6,220.217 113.9,220.65 C114.133,220.849 114.333,221.083 114.5,221.349 C114.7,221.716 114.75,222.183 114.65,222.749 C114.516,223.482 114.133,224.065 113.5,224.499 L91,236.9 L91,246.95 L120.25,247 C121.583,247.267 122.25,247.95 122.25,249.05 C122.25,249.417 122.083,249.783 121.75,250.151 C121.35,250.617 120.85,250.901 120.25,251.001 L91,251.001 L91,251.151 C91,252.451 91.116,255.367 91.35,259.901 C91.317,263.8 90.534,265.751 89,265.751 C88.467,265.751 88.017,265.501 87.65,265.001 C86.683,264.401 86.183,262.617 86.15,259.651 C86.383,255.418 86.5,252.534 86.5,251.001 L64.75,251.001 C63.817,250.901 63.217,250.551 62.95,249.951 C62.817,249.718 62.75,249.334 62.75,248.801 C62.75,248.034 62.967,247.501 63.4,247.201 C63.6,246.767 63.983,246.367 64.55,246.001 L86.5,233.951 L86.5,223.751 L57.5,223.751 C56.167,223.451 55.5,222.784 55.5,221.751 C55.5,220.551 56.167,219.885 57.5,219.751 L86.5,219.751 L86.5,216.701 C86.233,214.6 86.05,212.934 85.95,211.701 C85.65,208.167 86.667,206.267 89,206 Z M91,231.5 L105.05,223.75 L91,223.75 L91,231.5 Z M86.5,246.95 L86.5,239.349 L72.7,246.95 L86.5,246.95 Z" id="Shape" fill="#000000" fill-rule="nonzero"></path>
        </g>
    </g>
</svg>